<?xml version="1.0" encoding="utf-8"?>
<!-- Generator: Adobe Illustrator 21.0.0, SVG Export Plug-In . SVG Version: 6.00 Build 0)  -->
<svg version="1.1" id="Capa_1" xmlns="http://www.w3.org/2000/svg" xmlns:xlink="http://www.w3.org/1999/xlink" x="0px" y="0px"
	 viewBox="0 0 200 200" style="enable-background:new 0 0 200 200;" xml:space="preserve">
<g>
	<path class="back-icon" d="M67.7,34c-0.1,0-0.3,0-0.4,0C45.5,55.8,23.8,77.5,2,99.3c21.8,22,43.5,44.1,65.3,66.1c43.9,0,87.8,0,131.7,0
		c0-43.8,0-87.6,0-131.3C155.2,34,111.4,34,67.7,34z M185.9,152.2c-37.5,0-75,0-112.5,0c-0.1,0-0.3,0-0.4,0
		c-17.4-17.5-34.8-35-52.1-52.5c17.4-17.5,34.8-35,52.1-52.5c37.6,0,75.2,0,112.9,0C185.9,82.2,185.9,117.2,185.9,152.2z"/>
	<path class="back-icon" d="M103.4,139.1c10-10,20-20,30-30c10.1,10,20.2,20,30.4,30c3-3.1,6-6.3,9-9.4c-10-10-20-20-30-30
		c10-10.1,20-20.2,30-30.4c-3.1-3-6.3-6-9.4-9c-10,10-20,20-30,30c-10.1-10-20.2-20-30.4-30c-3,3.1-6,6.3-9,9.4c10,10,20,20,30,30
		c-10,10.1-20,20.2-30,30.4C97.1,133.1,100.2,136.1,103.4,139.1z"/>
</g>
</svg>
