<?xml version="1.0" encoding="utf-8"?>
<!-- Generator: Adobe Illustrator 21.0.0, SVG Export Plug-In . SVG Version: 6.00 Build 0)  -->
<svg version="1.1" id="Capa_1" xmlns="http://www.w3.org/2000/svg" xmlns:xlink="http://www.w3.org/1999/xlink" x="0px" y="0px"
	 viewBox="0 0 990 654" style="enable-background:new 0 0 990 654;" xml:space="preserve">
<g>
	<path class="back-icon" d="M336.7,0c-0.7,0-1.4,0-2,0C226.4,108.2,118.2,216.5,10,324.7c108.2,109.6,216.4,219.2,324.6,328.7
		c218.4,0,436.9,0,655.4,0c0-217.8,0-435.6,0-653.3C772.2,0,554.4,0,336.7,0z M924.7,588c-186.5,0-373,0-559.4,0c-0.7,0-1.4,0-2,0
		c-86.5-87.1-173-174.2-259.4-261.3c86.4-87.1,172.9-174.2,259.3-261.3c187.1,0,374.3,0,561.5,0C924.7,239.6,924.7,413.8,924.7,588z
		"/>
	<path class="back-icon" d="M514.3,522.7c49.7-49.7,99.4-99.4,149-149c50.4,49.7,100.7,99.4,151.1,149c15-15.6,30-31.3,44.9-47
		c-49.7-49.7-99.4-99.4-149.1-149c49.7-50.4,99.4-100.7,149.1-151.1c-15.6-15-31.3-29.9-47-44.9c-49.7,49.7-99.4,99.4-149,149
		c-50.4-49.7-100.7-99.4-151.1-149c-15,15.6-29.9,31.3-44.9,47c49.7,49.7,99.4,99.4,149,149c-49.7,50.4-99.4,100.7-149,151.1
		C483,492.8,498.6,507.7,514.3,522.7z"/>
</g>
</svg>
