<?xml version="1.0" encoding="utf-8"?>
<!-- Generator: Adobe Illustrator 21.0.0, SVG Export Plug-In . SVG Version: 6.00 Build 0)  -->
<svg version="1.1" id="Capa_2" xmlns="http://www.w3.org/2000/svg" xmlns:xlink="http://www.w3.org/1999/xlink" x="0px" y="0px"
	 viewBox="0 0 191 148" style="enable-background:new 0 0 191 148;" xml:space="preserve">
<path class="st0" d="M174.6,72.1c4.5,21.1-10.7,30.1-10.7,30.1l-1.4-2.9l-4.5-8.8l-18.3,33.1l35.8,1.8c0,0,0.1,0.2-4.7-9.4
	C195.8,92.8,174.6,72.1,174.6,72.1z"/>
<path class="st0" d="M175.2,29.7l-0.5,35.6l-33.5-16.9l8.6-4.8l2.8-1.5c0,0-9.5-14.8-30.2-9.5c0,0,19.7-21.8,43.6,2.2
	C175,29.8,175.2,29.7,175.2,29.7L175.2,29.7L175.2,29.7z"/>
<path class="st0" d="M134.4,72.2c-2-3.6-19.9-45.7-19.9-45.7l-0.2,0.1c-1.1-2.9-4.1-5-7.6-5H37.2c-3.3,0-6.2,1.9-7.4,4.6l0,0
	L9.8,71.9c0,0-3.1,6.3-2.3,16.1c-0.3,6.2,0,31.4,0,31.4c0,4.7,3.9,8.6,8.6,8.6h111.9c4.8,0,8.6-3.8,8.6-8.6V89
	C136.7,89,136.9,78.1,134.4,72.2z M86,95.1H58.8L51,79.4H24.8L42.8,37h59.6l17.9,42.4H93.7L86,95.1z"/>
</svg>
