<?xml version="1.0" encoding="utf-8"?>
<!-- Generator: Adobe Illustrator 21.0.0, SVG Export Plug-In . SVG Version: 6.00 Build 0)  -->
<svg version="1.1" id="Capa_2" xmlns="http://www.w3.org/2000/svg" xmlns:xlink="http://www.w3.org/1999/xlink" x="0px" y="0px"
	 viewBox="0 0 175.6 106.7" style="enable-background:new 0 0 175.6 106.7;" xml:space="preserve">
<path class="st0" d="M167.2,50.8c4.5,21.1-10.7,30.1-10.7,30.1l-1.4-2.9l-4.5-8.8l-18.3,33.1l35.8,1.8c0,0,0.1,0.2-4.7-9.4
	C188.4,71.5,167.2,50.8,167.2,50.8z"/>
<path class="st0" d="M167.8,8.4L167.3,44l-33.5-16.9l8.6-4.8l2.8-1.5c0,0-9.5-14.8-30.2-9.5c0,0,19.7-21.8,43.6,2.2
	C167.6,8.5,167.8,8.4,167.8,8.4L167.8,8.4L167.8,8.4z"/>
<path class="st0" d="M127,50.9c-2-3.6-19.9-45.7-19.9-45.7l-0.2,0.1c-1.1-2.9-4.1-5-7.6-5H29.8c-3.3,0-6.2,1.9-7.4,4.6l0,0l-20,45.7
	c0,0-3.1,6.3-2.3,16.1c-0.3,6.2,0,31.4,0,31.4c0,4.7,3.9,8.6,8.6,8.6h111.9c4.8,0,8.6-3.8,8.6-8.6V67.7
	C129.3,67.7,129.5,56.8,127,50.9z M78.6,73.8H51.4l-7.8-15.7H17.4l18-42.4H95l17.9,42.4H86.3L78.6,73.8z"/>
</svg>
