<?xml version="1.0" encoding="utf-8"?>
<!-- Generator: Adobe Illustrator 21.0.0, SVG Export Plug-In . SVG Version: 6.00 Build 0)  -->
<svg version="1.1" id="Capa_2" xmlns="http://www.w3.org/2000/svg" xmlns:xlink="http://www.w3.org/1999/xlink" x="0px" y="0px"
	 viewBox="0 0 191 148" style="enable-background:new 0 0 191 148;" xml:space="preserve">
<path class="st0" d="M125.5,92.1c-3.1,3.4-6.5,6.6-9.2,10.3c1,13.6,3.6,27.1,4.8,40.6c-9.3-4.1-18.4-8.7-27.6-12.8
	c-3.1-1.4-6-3.2-9.2-4.1c-3,0.3-5.4,2.2-8.1,3.2c-9.7,4.4-19.2,9.3-29.1,13.4c1.1-13.4,3.2-26.7,4.8-40.1c-4.9-6-10.4-11.3-15.6-17
	c-3.8-4.6-8.3-8.5-12.1-13.1c13.1-3.2,26.4-5.1,39.5-8c1.5-1.3,2.3-3.2,3.2-4.9C72.4,49.4,78,39.1,83.7,28.9
	c1.1,1.4,2.1,2.9,2.9,4.4c5.3,9.7,10.6,19.5,16.1,29.1c0.5,0.8,1,2.2,2.2,2.3c13,2.8,26.2,4.8,39.2,7.9
	C137.7,78.9,131.9,85.8,125.5,92.1z"/>
<path class="st0" d="M121,22c-0.8,0.9-1.7,1.8-2.5,2.8c0.3,3.7,1,7.3,1.3,10.9c-2.5-1.1-5-2.3-7.4-3.4c-0.8-0.4-1.6-0.9-2.5-1.1
	c-0.8,0.1-1.5,0.6-2.2,0.9c-2.6,1.2-5.2,2.5-7.8,3.6c0.3-3.6,0.9-7.2,1.3-10.8c-1.3-1.6-2.8-3-4.2-4.6c-1-1.2-2.2-2.3-3.3-3.5
	c3.5-0.9,7.1-1.4,10.6-2.2c0.4-0.4,0.6-0.9,0.9-1.3c1.5-2.8,3-5.5,4.5-8.3c0.3,0.4,0.6,0.8,0.8,1.2c1.4,2.6,2.9,5.2,4.3,7.8
	c0.1,0.2,0.3,0.6,0.6,0.6c3.5,0.8,7,1.3,10.5,2.1C124.3,18.5,122.8,20.3,121,22z"/>
<path class="st0" d="M152.5,34.4c-0.6,0.7-1.3,1.3-1.8,2c0.2,2.6,0.7,5.2,0.9,7.8c-1.8-0.8-3.5-1.7-5.3-2.5
	c-0.6-0.3-1.1-0.6-1.8-0.8c-0.6,0.1-1,0.4-1.6,0.6c-1.9,0.9-3.7,1.8-5.6,2.6c0.2-2.6,0.6-5.1,0.9-7.7c-0.9-1.1-2-2.2-3-3.3
	c-0.7-0.9-1.6-1.6-2.3-2.5c2.5-0.6,5.1-1,7.6-1.5c0.3-0.3,0.4-0.6,0.6-0.9c1.1-2,2.2-4,3.3-5.9c0.2,0.3,0.4,0.6,0.6,0.9
	c1,1.9,2.1,3.8,3.1,5.6c0.1,0.2,0.2,0.4,0.4,0.4c2.5,0.5,5,0.9,7.5,1.5C154.8,31.8,153.7,33.2,152.5,34.4z"/>
<path class="st0" d="M164.6,60.9c-0.4,0.5-0.9,0.9-1.3,1.5c0.1,1.9,0.5,3.9,0.7,5.8c-1.3-0.6-2.6-1.2-3.9-1.8
	c-0.4-0.2-0.9-0.5-1.3-0.6c-0.4,0-0.8,0.3-1.2,0.5c-1.4,0.6-2.7,1.3-4.2,1.9c0.2-1.9,0.5-3.8,0.7-5.7c-0.7-0.8-1.5-1.6-2.2-2.4
	c-0.5-0.7-1.2-1.2-1.7-1.9c1.9-0.5,3.8-0.7,5.6-1.1c0.2-0.2,0.3-0.5,0.5-0.7c0.8-1.5,1.6-2.9,2.4-4.4c0.2,0.2,0.3,0.4,0.4,0.6
	c0.8,1.4,1.5,2.8,2.3,4.2c0.1,0.1,0.1,0.3,0.3,0.3c1.9,0.4,3.7,0.7,5.6,1.1C166.3,59,165.5,60,164.6,60.9z"/>
</svg>
