<?xml version="1.0" encoding="utf-8"?>
<!-- Generator: Adobe Illustrator 21.0.0, SVG Export Plug-In . SVG Version: 6.00 Build 0)  -->
<svg version="1.1" id="Capa_3" xmlns="http://www.w3.org/2000/svg" xmlns:xlink="http://www.w3.org/1999/xlink" x="0px" y="0px"
	 viewBox="0 0 191 148" style="enable-background:new 0 0 191 148;" xml:space="preserve">
<path class="st0" d="M37.7,141.7c33.1-11,33.2-39.6,33.2-39.6l-5.3,0.4l-16,1l31.2-52.7l31.9,48.5c0,0,0.3,0-17,1.1
	C84,154.3,37.7,141.7,37.7,141.7z"/>
<path class="st0" d="M149.9,40.3l-23.5,52.5L87.5,46.2l15.8-1.5l5.2-0.4c0,0-4.6-28-38.8-33.5c0,0,43.3-19.7,63.3,31.2
	C149.4,40.4,149.9,40.3,149.9,40.3L149.9,40.3L149.9,40.3z"/>
</svg>
