<?xml version="1.0" encoding="utf-8"?>
<!-- Generator: Adobe Illustrator 21.0.0, SVG Export Plug-In . SVG Version: 6.00 Build 0)  -->
<svg version="1.1" id="Capa_1" xmlns="http://www.w3.org/2000/svg" xmlns:xlink="http://www.w3.org/1999/xlink" x="0px" y="0px"
	 viewBox="0 0 191 148" style="enable-background:new 0 0 191 148;" xml:space="preserve">
<g>
	<g>
		<path class="st0" d="M136.7,96.1c0,6,0,12,0,17.9c0,8.4,0,17.8-9.8,21.1c-3.4,1.1-7.3,0.8-10.8,0.8c-6,0-12,0-18,0
			c-16,0-32,0-47.9,0c-5.9,0-11.8,0-17.7,0c-4.1,0-8.3,0.4-12.1-1.5c-10.7-5.5-7.9-21.1-7.9-31.1c0-16,0-32,0-48
			c0-9.6-0.4-19.4,0-29c0.4-8.7,6.9-14.4,15.4-14.5c4.1,0,8.2,0,12.3,0c26.9,0,53.9-0.6,80.8,0c2.5,0.1,4.8,0.4,7.1,1.2
			c3,1.1,4.3-3.7,1.3-4.8c-4.4-1.6-8.7-1.4-13.3-1.4c-6.6,0-13.2,0-19.8,0c-16.9,0-33.9,0-50.8,0c-10.6,0-24.8-2.4-32.8,6.2
			c-7.6,8.1-5.3,22.1-5.3,32.3c0,17.1,0,34.2,0,51.3c0,6.4,0,12.8,0,19.2c0,4.2-0.3,8.4,1.2,12.5c5.1,14.1,19.4,12.8,31.5,12.8
			c16.6,0,33.1,0,49.7,0c10.8,0,21.6,0.3,32.3,0c9.9-0.3,18.3-7.4,19.4-17.4c0.7-6.7,0.1-13.7,0.1-20.4c0-2.3,0-4.7,0-7
			C141.7,92.9,136.7,92.9,136.7,96.1L136.7,96.1z"/>
	</g>
</g>
<path class="st0" d="M145.2,16.6l9.9-10.8c0,0,4.9-4.5,11.2,0c5.3,3.3,17.6,17.3,17.6,17.3s4.3,5.6,0.4,10.9
	c-3.9,5.3-10.8,10.5-10.8,10.5L145.2,16.6z"/>
<path class="st0" d="M137.9,23.1L70,90.5l0.4,28.9l29.4-0.4l66.5-67.4L137.9,23.1z M95.4,109.8l-7-0.3l0.5-9.5l-9.6,1.5l-0.1-7
	l12.1-11.8l15.6,15.8L95.4,109.8z M104.4,76.5c-0.8,0.9-2.4,0.8-3.4-0.2c-1-1-1.2-2.5-0.3-3.4l35.7-36.6c0.8-0.9,2.4-0.8,3.4,0.2
	c1,1,1.2,2.5,0.3,3.4L104.4,76.5z"/>
</svg>
