<?xml version="1.0" encoding="utf-8"?>
<!-- Generator: Adobe Illustrator 21.0.0, SVG Export Plug-In . SVG Version: 6.00 Build 0)  -->
<svg version="1.1" id="Capa_3" xmlns="http://www.w3.org/2000/svg" xmlns:xlink="http://www.w3.org/1999/xlink" x="0px" y="0px"
	 viewBox="0 0 191 148" style="enable-background:new 0 0 191 148;" xml:space="preserve">
<path class="st0" d="M170,19.2H19c-5,0-9,4-9,9v94.1c0,5,4,9,9,9H170c5,0,9-4,9-9V28.2C179,23.2,175,19.2,170,19.2z M167.9,98.8
	c-0.6,0-1.2-0.1-1.8-0.1c-11.7,0-21.3,9.5-21.3,21.3c0,0.4,0,0.7,0,1.1H43.4c0-0.4,0-0.7,0-1.1c0-11.7-9.5-21.3-21.3-21.3
	c-0.6,0-1.2,0-1.8,0.1v-47c0.6,0,1.2,0.1,1.8,0.1c11.7,0,21.3-9.5,21.3-21.3c0-0.4,0-0.7,0-1.1h101.5c0,0.4,0,0.7,0,1.1
	c0,11.7,9.5,21.3,21.3,21.3c0.6,0,1.2,0,1.8-0.1V98.8z"/>
<path class="st0" d="M92.7,39.7c-13.4,0-24.3,14.8-24.3,33.1c0,18.3,10.9,33.1,24.3,33.1c13.4,0,24.3-14.8,24.3-33.1
	C117,54.5,106.1,39.7,92.7,39.7z M90.5,93c-4.1,0-7.9-1-10.5-2.5l1.7-5.2c2,1.3,5.6,2.7,8.9,2.7c4.9,0,7.2-2.5,7.2-5.5
	c0-3.2-1.9-5-6.9-6.9c-6.7-2.4-9.9-6.1-9.9-10.6C81.1,59,86,54,94,54c3.8,0,7.1,1.1,9.2,2.3l-1.7,4.9c-1.5-0.9-4.2-2.2-7.6-2.2
	c-4,0-6.2,2.3-6.2,5.1c0,3.1,2.2,4.5,7.1,6.3c6.5,2.5,9.8,5.7,9.8,11.3C104.5,88.3,99.4,93,90.5,93z"/>
</svg>
